<svg width="1110" height="1110" xmlns="http://www.w3.org/2000/svg" xmlns:xlink="http://www.w3.org/1999/xlink" xml:space="preserve" overflow="hidden"><defs><linearGradient x1="2003" y1="565.833" x2="2003" y2="1676.17" gradientUnits="userSpaceOnUse" spreadMethod="reflect" id="stroke0"><stop offset="0" stop-color="#FFA45F"/><stop offset="0.26" stop-color="#FFFF00"/><stop offset="0.58" stop-color="#FF8D2F"/><stop offset="1" stop-color="#FFFF00"/></linearGradient></defs><g transform="translate(-1448 -566)"><path d="M1461 1121.5C1461 820.781 1704.56 577 2005 577 2305.44 577 2549 820.781 2549 1121.5 2549 1422.22 2305.44 1666 2005 1666 1704.56 1666 1461 1422.22 1461 1121.5Z" fill-rule="evenodd"/><g><g><g><path d="M616.125 213.987 475.012 72.875 337.875 209.35 424.662 210.675 424.662 419.362 216.637 419.362 216.637 341.187 112.625 341.187 112.625 523.375 528.675 523.375 528.675 212.662Z" fill="#FFC000" transform="matrix(-1 1.22465e-16 -1.60205e-16 -1.30818 2243 1595)"/></g></g></g><path d="M2381 917.496 2240.03 733 2103.03 911.432 2189.73 913.165 2189.73 1186.01 1981.91 1186.01 1981.91 1083.8 1878 1083.8 1878 1322 2293.64 1322 2293.64 915.763Z" fill="#FF7E2F" fill-rule="evenodd"/><path d="M1484.5 1121C1484.5 834.64 1716.64 602.5 2003 602.5 2289.36 602.5 2521.5 834.64 2521.5 1121 2521.5 1407.36 2289.36 1639.5 2003 1639.5 1716.64 1639.5 1484.5 1407.36 1484.5 1121Z" stroke="url(#stroke0)" stroke-width="73.3333" stroke-miterlimit="8" fill="none" fill-rule="evenodd"/></g></svg>